<svg width="14" height="9" viewBox="0 0 14 9" fill="none" xmlns="http://www.w3.org/2000/svg">
<path d="M5.41969 1.04922C5.69948 0.769429 5.69948 0.48964 5.41969 0.209846C5.1399 -0.0699487 4.86011 -0.0699487 4.58031 0.209846L0.75648 4.08031C0.632127 4.20466 0.569952 4.34456 0.569952 4.5C0.569952 4.59326 0.585496 4.67098 0.616584 4.73316C0.647672 4.79534 0.694304 4.85751 0.75648 4.91969L4.58031 8.79015C4.86011 9.06995 5.1399 9.06995 5.41969 8.79015C5.73057 8.47927 5.74612 8.19948 5.46632 7.95078L2.62177 5.10622H13.3938C13.7979 5.10622 14 4.90415 14 4.5C14 4.09585 13.7979 3.89378 13.3938 3.89378H2.62177L5.41969 1.04922Z" fill="#707070"/>
</svg>
