<svg width="18" height="20" viewBox="0 0 18 20" fill="none" xmlns="http://www.w3.org/2000/svg">
<path d="M15.6667 1.59722C16.1111 1.59722 16.5 1.79687 16.8333 2.19618C17.1667 2.59549 17.3333 3.06134 17.3333 3.59375V17.1701C17.3333 17.7026 17.1667 18.1684 16.8333 18.5677C16.5 18.967 16.1111 19.1667 15.6667 19.1667H1.66667C1.22222 19.1667 0.833335 18.967 0.5 18.5677C0.166665 18.1684 0 17.7026 0 17.1701V3.59375C0 3.06134 0.166665 2.59549 0.5 2.19618C0.833335 1.79687 1.22222 1.59722 1.66667 1.59722H3.33333V2.79514C3.33333 3.06134 3.44444 3.19444 3.66667 3.19444H4.33333C4.55556 3.19444 4.66667 3.06134 4.66667 2.79514V1.59722H12.6667V2.79514C12.6667 3.06134 12.7778 3.19444 13 3.19444H13.6667C13.8889 3.19444 14 3.06134 14 2.79514V1.59722H15.6667ZM16 16.5712V7.58681C16 7.3206 15.8889 7.1875 15.6667 7.1875H1.66667C1.44444 7.1875 1.33333 7.3206 1.33333 7.58681V16.5712C1.33333 16.8374 1.41667 17.0703 1.58333 17.27C1.75 17.4696 1.94444 17.5694 2.16667 17.5694H15.1667C15.3889 17.5694 15.5833 17.4696 15.75 17.27C15.9167 17.0703 16 16.8374 16 16.5712ZM4.66667 0.399306V1.59722H3.33333V0.399306C3.33333 0.133101 3.44444 0 3.66667 0H4.33333C4.55556 0 4.66667 0.133101 4.66667 0.399306ZM14 0.399306V1.59722H12.6667V0.399306C12.6667 0.133101 12.7778 0 13 0H13.6667C13.8889 0 14 0.133101 14 0.399306Z" fill="#0B76F1"/>
</svg>
