<svg width="15" height="21" viewBox="0 0 15 21" fill="none" xmlns="http://www.w3.org/2000/svg">
<path d="M2.20312 2.15625C3.67188 0.718743 5.43749 0 7.5 0C9.56251 0 11.3281 0.718743 12.7969 2.15625C14.2656 3.59376 15 5.32811 15 7.35938C15 8.98438 14.375 10.9375 13.125 13.2188C11.875 15.5 10.625 17.375 9.375 18.8438L7.5 21C7.28125 20.7812 7.00781 20.4766 6.67969 20.0859C6.35156 19.6953 5.75782 18.9375 4.89844 17.8125C4.03906 16.6875 3.28125 15.5938 2.625 14.5312C1.96875 13.4687 1.36719 12.2656 0.820312 10.9219C0.273435 9.57812 0 8.39063 0 7.35938C0 5.32811 0.734368 3.59376 2.20312 2.15625ZM5.57812 9.23438C6.10938 9.73438 6.75 9.98438 7.5 9.98438C8.25 9.98438 8.88281 9.72657 9.39844 9.21094C9.91407 8.69531 10.1719 8.07813 10.1719 7.35938C10.1719 6.64062 9.91407 6.02344 9.39844 5.50781C8.88281 4.99219 8.25 4.73438 7.5 4.73438C6.75 4.73438 6.11719 4.99219 5.60156 5.50781C5.08594 6.02344 4.82812 6.64062 4.82812 7.35938C4.82812 8.07813 5.07812 8.70312 5.57812 9.23438Z" fill="#979797"/>
</svg>
