<svg width="21" height="21" viewBox="0 0 21 21" fill="none" xmlns="http://www.w3.org/2000/svg">
<path d="M7.82812 7.875C8.57813 7.125 9.46875 6.75 10.5 6.75C11.5313 6.75 12.4141 7.11718 13.1484 7.85156C13.8828 8.58594 14.25 9.46875 14.25 10.5C14.25 11.5313 13.8828 12.4141 13.1484 13.1484C12.4141 13.8828 11.5313 14.25 10.5 14.25C9.46875 14.25 8.58594 13.8828 7.85156 13.1484C7.11718 12.4141 6.75 11.5313 6.75 10.5C6.75 9.46875 7.10937 8.59375 7.82812 7.875ZM19.4531 9.51562H21V11.4844H19.4531C19.2344 13.5781 18.375 15.375 16.875 16.875C15.375 18.375 13.5781 19.2344 11.4844 19.4531V21H9.51562V19.4531C7.42186 19.2344 5.62501 18.375 4.125 16.875C2.62499 15.375 1.76563 13.5781 1.54688 11.4844H0V9.51562H1.54688C1.76563 7.42186 2.62499 5.62501 4.125 4.125C5.62501 2.62499 7.42186 1.76563 9.51562 1.54688V0H11.4844V1.54688C13.5781 1.76563 15.375 2.62499 16.875 4.125C18.375 5.62501 19.2344 7.42186 19.4531 9.51562ZM5.53125 15.4688C6.90626 16.8125 8.56249 17.4844 10.5 17.4844C12.4375 17.4844 14.0859 16.8047 15.4453 15.4453C16.8047 14.0859 17.4844 12.4375 17.4844 10.5C17.4844 8.56249 16.8047 6.91407 15.4453 5.55469C14.0859 4.19531 12.4375 3.51562 10.5 3.51562C8.56249 3.51562 6.91407 4.19531 5.55469 5.55469C4.19531 6.91407 3.51562 8.56249 3.51562 10.5C3.51562 12.4375 4.18749 14.0937 5.53125 15.4688Z" fill="#DDDDDD"/>
</svg>
