<svg width="19" height="18" viewBox="0 0 19 18" fill="none" xmlns="http://www.w3.org/2000/svg">
<path d="M17.8125 16.6875C18.1563 17.0938 18.1406 17.4687 17.7656 17.8125C17.6406 17.9375 17.4688 18 17.25 18C17.0312 18 16.8438 17.9219 16.6875 17.7656L11.7188 12.75C10.4062 13.8125 8.89063 14.3438 7.17188 14.3438C5.17186 14.3438 3.47657 13.6406 2.08594 12.2344C0.695306 10.8281 0 9.14063 0 7.17188C0 5.20311 0.695306 3.51563 2.08594 2.10938C3.47657 0.703118 5.17186 0 7.17188 0C9.17188 0 10.8672 0.703118 12.2578 2.10938C13.6484 3.51563 14.3438 5.20311 14.3438 7.17188C14.3438 8.85938 13.8281 10.3437 12.7969 11.625L17.8125 16.6875ZM3.1875 11.1562C4.28125 12.25 5.60937 12.7969 7.17188 12.7969C8.73438 12.7969 10.0625 12.25 11.1562 11.1562C12.25 10.0625 12.7969 8.73438 12.7969 7.17188C12.7969 5.60937 12.25 4.28125 11.1562 3.1875C10.0625 2.09374 8.73438 1.54688 7.17188 1.54688C5.60937 1.54688 4.28125 2.09374 3.1875 3.1875C2.09374 4.28125 1.54688 5.60937 1.54688 7.17188C1.54688 8.73438 2.09374 10.0625 3.1875 11.1562Z" fill="#979797"/>
</svg>
