<svg width="18" height="18" viewBox="0 0 18 18" fill="none" xmlns="http://www.w3.org/2000/svg">
<path d="M13.9922 0H4.00781L0 6H18L13.9922 0ZM0 7.00781V7.71094C0 8.61719 0.320309 9.39062 0.960938 10.0312C1.60157 10.6719 2.37499 10.9922 3.28125 10.9922C3.89063 10.9922 4.44922 10.8359 4.95703 10.5234C5.46485 10.2109 5.85937 9.80469 6.14062 9.30469C6.42188 9.80469 6.8125 10.2109 7.3125 10.5234C7.8125 10.8359 8.375 10.9922 9 10.9922C9.60938 10.9922 10.168 10.8359 10.6758 10.5234C11.1836 10.2109 11.5781 9.80469 11.8594 9.30469C12.1406 9.80469 12.5352 10.2109 13.043 10.5234C13.5508 10.8359 14.1094 10.9922 14.7188 10.9922C15.625 10.9922 16.3984 10.6719 17.0391 10.0312C17.6797 9.39062 18 8.61719 18 7.71094V7.00781H0ZM15 14.0156H3V11.9766C2.64062 11.9453 2.28906 11.875 1.94531 11.7656C1.60156 11.6562 1.28906 11.5078 1.00781 11.3203V18H16.9922V11.3203C16.7109 11.5078 16.3984 11.6562 16.0547 11.7656C15.7109 11.875 15.3594 11.9453 15 11.9766V14.0156Z" fill="#979797"/>
</svg>
