<svg width="9" height="9" viewBox="0 0 9 9" fill="none" xmlns="http://www.w3.org/2000/svg">
<path d="M6.99609 0H2.00391L0 3H9L6.99609 0ZM0 3.50391V3.85547C0 4.3086 0.160154 4.69531 0.480469 5.01562C0.800783 5.33594 1.1875 5.49609 1.64062 5.49609C1.94531 5.49609 2.22461 5.41797 2.47852 5.26172C2.73242 5.10547 2.92969 4.90235 3.07031 4.65234C3.21094 4.90235 3.40625 5.10547 3.65625 5.26172C3.90625 5.41797 4.1875 5.49609 4.5 5.49609C4.80469 5.49609 5.08398 5.41797 5.33789 5.26172C5.5918 5.10547 5.78906 4.90235 5.92969 4.65234C6.07031 4.90235 6.26758 5.10547 6.52148 5.26172C6.77539 5.41797 7.05469 5.49609 7.35938 5.49609C7.8125 5.49609 8.19922 5.33594 8.51953 5.01562C8.83985 4.69531 9 4.3086 9 3.85547V3.50391H0ZM7.5 7.00781H1.5V5.98828C1.32031 5.97266 1.14453 5.9375 0.972656 5.88281C0.800781 5.82812 0.644532 5.75391 0.503906 5.66016V9H8.49609V5.66016C8.35547 5.75391 8.19922 5.82812 8.02734 5.88281C7.85547 5.9375 7.67969 5.97266 7.5 5.98828V7.00781Z" fill="#4A4A4A"/>
</svg>
