<svg width="16" height="16" viewBox="0 0 16 16" fill="none" xmlns="http://www.w3.org/2000/svg">
<path d="M14.9713 12.073C15.3465 12.4482 15.4671 12.7966 15.3331 13.1182C15.1991 13.4398 15.0249 13.7614 14.8105 14.083C14.4353 14.6459 14.0333 15.0345 13.6045 15.2489C12.8005 15.6509 11.5275 15.3561 9.7854 14.3645C7.82894 13.2656 6.15391 12.0194 4.76027 10.6258C3.42023 9.31252 2.17401 7.6375 1.02158 5.60064C0.0567513 3.88538 -0.224653 2.62577 0.177359 1.82174C0.418566 1.33933 0.793772 0.92392 1.30299 0.575509L2.26781 0.0528963C2.58942 -0.081107 2.93783 0.0394943 3.31304 0.414705C4.03666 1.13833 4.63967 2.03614 5.12208 3.10817C5.33649 3.51019 5.44369 3.82509 5.44369 4.0529C5.44369 4.2807 5.33649 4.52861 5.12208 4.79662C5.09528 4.85022 5.01488 4.96412 4.88088 5.13832C4.74687 5.31253 4.67987 5.41303 4.67987 5.43983C4.67987 5.46663 4.63967 5.58053 4.55927 5.78154C4.47887 5.98255 4.47887 6.10985 4.55927 6.16345C4.69327 6.75307 5.36328 7.65088 6.56932 8.85692C7.74855 10.0362 8.63297 10.6928 9.22258 10.8268C9.54419 10.9072 9.9998 10.7196 10.5894 10.264C10.8574 10.0495 11.1053 9.94234 11.3331 9.94234C11.5609 9.94234 11.8758 10.0495 12.2779 10.264C13.4035 10.8 14.3013 11.403 14.9713 12.073Z" fill="white"/>
</svg>
