<svg width="23" height="16" viewBox="0 0 23 16" fill="none" xmlns="http://www.w3.org/2000/svg">
<path d="M10.548 8.62045L11.1181 9.21652C11.2391 9.33746 11.2996 9.48432 11.2996 9.6571C11.2996 9.82987 11.2391 9.97673 11.1181 10.0977L6.09041 15.1254C5.96947 15.2464 5.82261 15.3068 5.64983 15.3068C5.47706 15.3068 5.3302 15.2464 5.20926 15.1254L0.18152 10.0977C0.0605769 9.97673 0.00010729 9.82987 0.000107305 9.6571C0.000107321 9.48432 0.060577 9.33746 0.18152 9.21652L0.751676 8.64637C0.872619 8.50815 1.01948 8.44335 1.19225 8.45199C1.36503 8.46063 1.51188 8.52542 1.63283 8.64637L4.61319 11.7563L4.61319 0.682001C4.61319 0.509224 4.67366 0.362369 4.7946 0.241426C4.91554 0.120484 5.0624 0.0600132 5.23518 0.0600132L6.06449 0.0600133C6.23727 0.0600133 6.38413 0.120484 6.50507 0.241426C6.62601 0.362369 6.68648 0.509224 6.68648 0.682001L6.68648 11.7563L9.66684 8.64637C9.78778 8.52542 9.93464 8.46063 10.1074 8.45199C10.2802 8.44336 10.427 8.49951 10.548 8.62045Z" fill="#607D8B"/>
<rect x="8.73145" width="13.8182" height="1.45455" rx="0.727273" fill="#B0C6D1"/>
<rect x="8.73145" y="2.90912" width="13.8182" height="1.45455" rx="0.727273" fill="#B0C6D1"/>
<rect x="8.73145" y="5.81818" width="13.8182" height="1.45455" rx="0.727273" fill="#B0C6D1"/>
<rect x="13.095" y="8.72729" width="9.45455" height="1.45455" rx="0.727273" fill="#B0C6D1"/>
<rect x="11.6404" y="11.6364" width="10.9091" height="1.45455" rx="0.727273" fill="#B0C6D1"/>
<rect x="8.73145" y="14.5455" width="13.8182" height="1.45455" rx="0.727273" fill="#B0C6D1"/>
</svg>
