<svg width="16" height="16" viewBox="0 0 16 16" fill="none" xmlns="http://www.w3.org/2000/svg">
<path fill-rule="evenodd" clip-rule="evenodd" d="M15.0079 0H0.876978C0.392986 0 0 0.395833 0 0.883333V15.1167C0 15.6042 0.392986 16 0.876978 16H7.94245V9.66667H6.0437V7.33333H7.94245V5.60833C7.94245 3.54167 9.36547 2.41667 11.198 2.41667C12.075 2.41667 13.0182 2.48333 13.2374 2.5125V4.67083H11.7772C10.7802 4.67083 10.5899 5.14583 10.5899 5.84583V7.33333H12.9644L12.6541 9.66667H10.5899V16H15.0079C15.4919 16 15.8849 15.6042 15.8849 15.1167V0.883333C15.8849 0.395833 15.4919 0 15.0079 0Z" fill="#1F8EFA"/>
</svg>
