<svg width="22" height="21" viewBox="0 0 22 21" fill="none" xmlns="http://www.w3.org/2000/svg">
<path fill-rule="evenodd" clip-rule="evenodd" d="M20.6432 15.5039C20.6432 15.5039 18.9533 14.6891 18.7291 14.5797C18.5049 14.4703 18.4448 14.4758 18.2096 14.5852C17.9744 14.6946 11.3901 17.8828 11.3901 17.8828C11.144 17.9977 10.8268 18.0578 10.5096 18.0578C10.1924 18.0578 9.86975 17.9977 9.62913 17.8828C9.62913 17.8828 3.21428 14.7875 2.9135 14.6399C2.58538 14.4813 2.49241 14.4813 2.19709 14.6235C1.89084 14.7711 0.370532 15.5039 0.370532 15.5039C-0.116187 15.7391 -0.116187 16.1219 0.370532 16.3571L9.62366 20.825C9.86428 20.9453 10.1869 21 10.5041 21C10.8213 21 11.144 20.9399 11.3846 20.825L20.6377 16.3571C21.1299 16.1219 21.1299 15.7391 20.6432 15.5039Z" fill="#607D8B"/>
<path fill-rule="evenodd" clip-rule="evenodd" d="M20.6432 10.0735C20.6432 10.0735 18.9533 9.25861 18.7291 9.14923C18.5049 9.03986 18.4447 9.04533 18.2096 9.1547C17.9744 9.26408 11.3846 12.4469 11.3846 12.4469C11.1385 12.5617 10.8213 12.6219 10.5041 12.6219C10.1869 12.6219 9.86426 12.5617 9.62363 12.4469C9.62363 12.4469 3.20879 9.35158 2.90801 9.20392C2.57988 9.04533 2.48691 9.04533 2.1916 9.18751C1.88535 9.33517 0.365039 10.068 0.365039 10.068C-0.12168 10.3031 -0.12168 10.686 0.365039 10.9211L9.61816 15.3891C9.85879 15.5039 10.1814 15.5641 10.4986 15.5641C10.8158 15.5641 11.1385 15.5039 11.3791 15.3891L20.6322 10.9211C21.1299 10.6914 21.1299 10.3086 20.6432 10.0735Z" fill="#87A6B5"/>
<path fill-rule="evenodd" clip-rule="evenodd" d="M0.376025 5.49609L9.62915 9.96406C9.86978 10.0789 10.1924 10.1391 10.5096 10.1391C10.8268 10.1391 11.1495 10.0789 11.3901 9.96406L20.6432 5.49609C21.1299 5.26094 21.1299 4.87812 20.6432 4.64297L11.3901 0.175C11.1495 0.0601562 10.8268 0 10.5096 0C10.1924 0 9.86978 0.0601562 9.62915 0.175L0.376025 4.64297C-0.110693 4.87812 -0.110693 5.26094 0.376025 5.49609Z" fill="#B0C6D1"/>
</svg>
