<svg width="16" height="14" viewBox="0 0 16 14" fill="none" xmlns="http://www.w3.org/2000/svg">
<path d="M14.4326 0.968406C15.411 1.80111 15.9314 2.86278 15.9939 4.15347C16.0563 5.44416 15.64 6.53706 14.7448 7.43222L8.7182 13.6774C8.51003 13.8856 8.27063 13.9897 8 13.9897C7.72937 13.9897 7.48997 13.8856 7.2818 13.6774L1.25515 7.43222C0.360002 6.53706 -0.0563428 5.44416 0.00610951 4.15347C0.0685624 2.86278 0.588993 1.80111 1.56742 0.968406C2.42094 0.239792 3.40455 -0.0776699 4.51829 0.0160085C5.63202 0.109688 6.58441 0.562462 7.37548 1.37435L8 1.99887L8.62452 1.37435C9.41559 0.562462 10.368 0.109688 11.4817 0.0160085C12.5955 -0.0776699 13.5791 0.239792 14.4326 0.968406Z" fill="#ffffff"/>
</svg>
