<svg width="18" height="15" viewBox="0 0 18 15" fill="none" xmlns="http://www.w3.org/2000/svg">
<path d="M0.375 8.0625C0.124999 7.78125 0 7.46875 0 7.125C0 6.78125 0.132811 6.47656 0.398438 6.21094C0.664064 5.94531 0.968748 5.8125 1.3125 5.8125C1.65625 5.8125 1.96094 5.94531 2.22656 6.21094C2.49219 6.47656 2.625 6.78125 2.625 7.125C2.625 7.46875 2.49219 7.77344 2.22656 8.03906C1.96094 8.30469 1.65625 8.4375 1.3125 8.4375C0.968748 8.4375 0.656251 8.3125 0.375 8.0625ZM0.375 2.25C0.124999 1.96875 0 1.65625 0 1.3125C0 0.968748 0.132811 0.664064 0.398438 0.398438C0.664064 0.132811 0.968748 0 1.3125 0C1.65625 0 1.96094 0.132811 2.22656 0.398438C2.49219 0.664064 2.625 0.968748 2.625 1.3125C2.625 1.65625 2.49219 1.96094 2.22656 2.22656C1.96094 2.49219 1.65625 2.625 1.3125 2.625C0.968748 2.625 0.656251 2.5 0.375 2.25ZM0.375 13.875C0.124999 13.5937 0 13.2813 0 12.9375C0 12.5937 0.132811 12.2891 0.398438 12.0234C0.664064 11.7578 0.968748 11.625 1.3125 11.625C1.65625 11.625 1.96094 11.7578 2.22656 12.0234C2.49219 12.2891 2.625 12.5937 2.625 12.9375C2.625 13.2813 2.49219 13.5859 2.22656 13.8516C1.96094 14.1172 1.65625 14.25 1.3125 14.25C0.968748 14.25 0.656251 14.125 0.375 13.875ZM17.25 6.375C17.75 6.375 18 6.625 18 7.125C18 7.625 17.75 7.875 17.25 7.875H6C5.5 7.875 5.25 7.625 5.25 7.125C5.25 6.625 5.5 6.375 6 6.375H17.25ZM17.25 12.1875C17.75 12.1875 18 12.4375 18 12.9375C18 13.4375 17.75 13.6875 17.25 13.6875H6C5.5 13.6875 5.25 13.4375 5.25 12.9375C5.25 12.4375 5.5 12.1875 6 12.1875H17.25ZM6 2.0625C5.5 2.0625 5.25 1.8125 5.25 1.3125C5.25 0.812497 5.5 0.5625 6 0.5625H17.25C17.75 0.5625 18 0.812497 18 1.3125C18 1.8125 17.75 2.0625 17.25 2.0625H6Z" fill="#0B76F1"/>
</svg>
