<svg width="16" height="11" viewBox="0 0 16 11" fill="none" xmlns="http://www.w3.org/2000/svg">
<path d="M15.8846 1.33681C15.9103 1.31134 15.9359 1.31134 15.9615 1.33681C15.9872 1.36227 16 1.38773 16 1.41319V9.77778C16 10.1343 15.8846 10.4271 15.6538 10.6562C15.4231 10.8854 15.1282 11 14.7692 11H1.23077C0.871793 11 0.576924 10.8854 0.346154 10.6562C0.115383 10.4271 0 10.1343 0 9.77778V1.41319C0 1.38773 0.0128202 1.36227 0.0384617 1.33681C0.0641026 1.31134 0.0897435 1.31134 0.115384 1.33681L4.26923 5.53819C4.29487 5.56366 4.29487 5.60185 4.26923 5.65278L1.38462 8.70833C1.15384 8.9375 1.15384 9.16667 1.38462 9.39583C1.48718 9.49769 1.60256 9.54861 1.73077 9.54861C1.85898 9.54861 1.97436 9.49769 2.07692 9.39583L4.96154 6.34028C4.98718 6.28935 5.02564 6.28935 5.07692 6.34028L5.76923 7.02778C6.41026 7.66435 7.15384 7.98264 8 7.98264C8.92308 7.98264 9.66666 7.67709 10.2308 7.06597L10.9231 6.34028C10.9744 6.28935 11.0128 6.28935 11.0385 6.34028L13.9231 9.39583C14.0256 9.49769 14.141 9.54861 14.2692 9.54861C14.3974 9.54861 14.5128 9.49769 14.6154 9.39583C14.8462 9.16667 14.8462 8.9375 14.6154 8.70833L11.7308 5.65278C11.7051 5.60185 11.7051 5.56366 11.7308 5.53819L15.8846 1.33681ZM8 6.98958C7.41025 6.98958 6.91026 6.78588 6.5 6.37847L0.461538 0.267361C0.692309 0.0891193 0.948716 0 1.23077 0H14.7692C15.0256 0 15.2821 0.0891193 15.5385 0.267361L9.5 6.37847C9.11538 6.78588 8.61539 6.98958 8 6.98958Z" fill="white"/>
</svg>
