<svg width="16" height="16" viewBox="0 0 16 16" fill="none" xmlns="http://www.w3.org/2000/svg">
<path d="M0 0.356139C0 0.218681 0.0549819 0.11559 0.164948 0.0468605C0.274915 -0.0218681 0.384879 -0.0149956 0.494845 0.0674795L3.38144 2.17057C3.46392 2.25305 3.50515 2.34927 3.50515 2.45923V15.4902C3.50515 15.6276 3.45017 15.7307 3.34021 15.7994C3.23024 15.8682 3.12028 15.8613 3.01031 15.7788L0.164948 13.717C0.0549819 13.607 0 13.5108 0 13.4283V0.356139ZM4.3299 2.45923C4.3299 2.34927 4.37113 2.25305 4.45361 2.17057L7.01031 0.686036C7.12028 0.603561 7.23024 0.596689 7.34021 0.665417C7.45017 0.734147 7.50515 0.837238 7.50515 0.974696V14.0056C7.50515 14.1156 7.46392 14.2118 7.38144 14.2943L4.82474 15.8201C4.71478 15.9025 4.60481 15.9094 4.49485 15.8407C4.38488 15.7719 4.3299 15.6689 4.3299 15.5314V2.45923ZM15.3402 0.108717C15.4502 0.0262415 15.5601 0.0124966 15.6701 0.0674795C15.7801 0.122462 15.8351 0.218681 15.8351 0.356139V13.4283C15.8351 13.5108 15.7801 13.607 15.6701 13.717L12.8247 15.7788C12.7148 15.8613 12.6048 15.8682 12.4948 15.7994C12.3849 15.7307 12.3299 15.6276 12.3299 15.4902V2.45923C12.3299 2.34927 12.3711 2.25305 12.4536 2.17057L15.3402 0.108717ZM8.3299 0.933459C8.3299 0.796001 8.38488 0.692909 8.49485 0.62418C8.60481 0.555452 8.71478 0.562324 8.82474 0.644799L11.3814 2.17057C11.4639 2.25305 11.5052 2.34927 11.5052 2.45923V15.4902C11.5052 15.6276 11.4502 15.7307 11.3402 15.7994C11.2302 15.8682 11.1203 15.8613 11.0103 15.7788L8.45361 14.253C8.37113 14.1706 8.3299 14.0744 8.3299 13.9644V0.933459Z" fill="#87A6B5"/>
</svg>
